# xmcd
#
# Track frame offsets: 
#        150
#        17550
#        36610
#        57297
#        68855
#        86542
#        99765
#        118120
#        132440
#        152515
#        166680
#        187605
#        202567
#        231947
#
# Disc length: 3190 seconds
#
# Revision: 31
# Processed by: cddbd v1.5.2PL0 Copyright (c) Steve Scherf et al.
# Submitted via: ExactAudioCopy v1.3
#
DISCID=a50c740e
DTITLE=Michael Bublé - Michael Bublé
DYEAR=2003
DGENRE=Jazz
TTITLE0=Fever
TTITLE1=Moondance
TTITLE2=Kissing a fool
TTITLE3=For once in my life
TTITLE4=How can you mend a broken heart
TTITLE5=Summer wind
TTITLE6=You'll never find another love like mine
TTITLE7=Crazy little thing called love
TTITLE8=Put your head on my shoulder
TTITLE9=Sway
TTITLE10=The way you look tonight
TTITLE11=Come fly with me
TTITLE12=That's all
TTITLE13=Data
EXTD=YEAR: 2003
EXTT0=
EXTT1=
EXTT2=
EXTT3=
EXTT4=
EXTT5=
EXTT6=
EXTT7=
EXTT8=
EXTT9=
EXTT10=
EXTT11=
EXTT12=
EXTT13=
PLAYORDER=
